#!OML:ASF F:\VICON\USERDATA\INSTALL\rory3\rory3.ASF
:FULLY-SPECIFIED
:DEGREES
307
root 1.25409 17.8095 -17.2884 1.07167 -1.24402 -0.794899
lowerback 5.25463 -0.204132 -0.692026
upperback -0.484243 -0.228715 2.56273
thorax -3.43507 -0.0771012 3.05569
lowerneck -18.1151 -3.8542 -9.974
upperneck 15.9422 -4.00934 7.11648
head 8.28111 -1.79692 3.53338
rclavicle -6.90777e-015 1.51076e-014
rhumerus -34.5742 -13.6674 -77.5542
rradius 33.701
rwrist 5.31863
rhand -13.5436 13.9665
rfingers 7.12502
rthumb 12.5692 -15.6354
lclavicle -6.90777e-015 1.51076e-014
lhumerus -33.4372 4.4672 86.0016
lradius 32.1511
lwrist -11.1529
lhand -11.3502 30.0335
lfingers 7.12502
lthumb 14.6832 59.4936
rfemur -4.71032 4.71418 21.2555
rtibia 18.1623
rfoot -9.28025 -9.05445
rtoes 3.03156
lfemur -5.74623 -3.08321 -20.2113
ltibia 19.7318
lfoot -11.7096 5.00544
ltoes 2.943
308
root 1.24801 17.8051 -17.2838 1.0047 -1.05103 -0.68577
lowerback 5.3339 -0.268238 -0.860303
upperback -0.478181 -0.324647 2.56574
thorax -3.46701 -0.121386 3.16253
lowerneck -18.2467 -3.81735 -10.0916
upperneck 16.0927 -3.94481 7.2404
head 8.35388 -1.76001 3.60517
rclavicle -2.08724e-015 -2.06736e-014
rhumerus -34.5663 -13.8179 -77.4308
rradius 33.4994
rwrist 5.21339
rhand -13.3574 13.2783
rfingers 7.12502
rthumb 12.7486 -16.3125
lclavicle -2.08724e-015 -2.06736e-014
lhumerus -33.4691 4.49823 86.0514
lradius 32.0029
lwrist -11.1693
lhand -12.6458 27.9663
lfingers 7.12502
lthumb 13.4346 57.5131
rfemur -4.58256 4.73189 21.1964
rtibia 18.0771
rfoot -9.12138 -9.30936
rtoes 2.56085
lfemur -5.76068 -3.1711 -20.3048
ltibia 19.8121
lfoot -11.7632 4.95055
ltoes 2.48918
309
root 1.24643 17.8061 -17.2739 1.01035 -1.01433 -0.58488
lowerback 5.29965 -0.281659 -0.98863
upperback -0.493396 -0.350285 2.57945
thorax -3.46117 -0.131525 3.25119
lowerneck -18.2642 -3.81988 -10.136
upperneck 16.123 -3.92973 7.21167
head 8.36616 -1.75851 3.60485
rclavicle 5.1684e-015 7.95139e-016
rhumerus -34.6774 -13.8397 -77.2683
rradius 33.372
rwrist 5.20271
rhand -13.2679 12.1301
rfingers 7.12502
rthumb 12.8349 -17.4553
lclavicle 5.1684e-015 7.95139e-016
lhumerus -33.5337 4.49254 86.1591
lradius 31.7355
lwrist -10.8297
lhand -14.5597 25.3365
lfingers 7.12502
lthumb 11.5893 54.996
rfemur -4.58304 4.62885 21.0934
rtibia 18.07
rfoot -8.99813 -9.32653
rtoes 1.76569
lfemur -5.78961 -3.05698 -20.4239
ltibia 19.8381
lfoot -11.7461 4.85829
ltoes 1.84087
310
root 1.24718 17.8056 -17.2635 0.968804 -1.0408 -0.589309
lowerback 5.27059 -0.268356 -0.936321
upperback -0.477396 -0.330064 2.56387
thorax -3.42985 -0.123107 3.20326
lowerneck -18.2498 -3.84898 -10.0431
upperneck 16.1406 -3.9767 7.1097
head 8.36986 -1.78561 3.54851
rclavicle -3.926e-015 4.77083e-015
rhumerus -34.8177 -13.8901 -77.2079
rradius 33.3032
rwrist 5.08801
rhand -13.5224 11.7598
rfingers 7.12502
rthumb 12.5896 -17.8409
lclavicle -3.926e-015 4.77083e-015
lhumerus -33.661 4.30812 86.2488
lradius 31.5508
lwrist -10.2713
lhand -13.3686 27.1176
lfingers 7.12502
lthumb 12.7379 56.7091
rfemur -4.51947 4.56032 21.091
rtibia 18.1134
rfoot -9.12017 -9.24242
rtoes 1.65574
lfemur -5.64428 -3.02664 -20.4276
ltibia 19.7809
lfoot -11.7774 4.82142
ltoes 2.19804
311
root 1.24685 17.8039 -17.2601 1.00738 -1.08073 -0.589767
lowerback 5.21925 -0.234152 -0.896435
upperback -0.455785 -0.283155 2.54263
thorax -3.38175 -0.101432 3.15405
lowerneck -18.4096 -3.85573 -9.92696
upperneck 16.2225 -3.99114 7.04172
head 8.42284 -1.78972 3.5043
rclavicle -1.45858e-014 -4.77083e-015
rhumerus -34.8066 -14.0813 -77.1089
rradius 33.0626
rwrist 5.03588
rhand -13.6729 11.9706
rfingers 7.12502
rthumb 12.4445 -17.639
lclavicle -1.45858e-014 -4.77083e-015
lhumerus -33.7203 4.20488 86.2861
lradius 31.3111
lwrist -10.3794
lhand -12.1477 28.238
lfingers 7.12502
lthumb 13.9147 57.7524
rfemur -4.53012 4.58526 21.0799
rtibia 18.1441
rfoot -9.34389 -9.17829
rtoes 2.32137
lfemur -5.59866 -3.14602 -20.417
ltibia 19.7195
lfoot -11.8092 4.94556
ltoes 2.7016
312
root 1.24372 17.8066 -17.2573 1.09531 -1.07698 -0.552069
lowerback 5.13044 -0.236847 -0.934296
upperback -0.459992 -0.289719 2.53365
thorax -3.33556 -0.104579 3.16571
lowerneck -18.4538 -3.8326 -9.90714
upperneck 16.1558 -3.95866 7.048
head 8.40475 -1.77113 3.50642
rclavicle -7.7526e-015 -4.77083e-015
rhumerus -34.7483 -14.3165 -76.9536
rradius 32.7473
rwrist 5.18395
rhand -13.4242 12.3151
rfingers 7.12502
rthumb 12.6843 -17.2797
lclavicle -7.7526e-015 -4.77083e-015
lhumerus -33.7321 4.28748 86.2457
lradius 30.8638
lwrist -10.921
lhand -13.0943 25.5196
lfingers 7.12502
lthumb 13.0023 55.0944
rfemur -4.60038 4.68371 21.0474
rtibia 18.1672
rfoot -9.41755 -9.21933
rtoes 2.9422
lfemur -5.66879 -3.22539 -20.4312
ltibia 19.6682
lfoot -11.7131 4.95939
ltoes 2.80182
313
root 1.24101 17.8058 -17.252 1.09022 -1.10433 -0.583458
lowerback 5.12945 -0.261587 -0.897798
upperback -0.443195 -0.319918 2.55906
thorax -3.31584 -0.120447 3.17369
lowerneck -18.4902 -3.8319 -10.0026
upperneck 16.116 -3.93592 7.09723
head 8.39868 -1.76038 3.54138
rclavicle -7.70291e-016 1.03368e-014
rhumerus -34.7147 -14.4433 -76.8287
rradius 32.526
rwrist 5.30954
rhand -13.3533 12.5567
rfingers 7.12502
rthumb 12.7526 -17.0339
lclavicle -7.70291e-016 1.03368e-014
lhumerus -33.694 4.59711 86.1592
lradius 30.4082
lwrist -11.3784
lhand -13.8955 22.0171
lfingers 7.12502
lthumb 12.2299 51.6395
rfemur -4.5824 4.75371 21.103
rtibia 18.176
rfoot -9.36503 -9.28207
rtoes 3.29566
lfemur -5.61662 -3.3035 -20.3951
ltibia 19.6157
lfoot -11.6537 5.01471
ltoes 3.11245
314
root 1.24123 17.8061 -17.2492 1.10283 -1.07941 -0.651983
lowerback 5.20983 -0.313677 -0.800421
upperback -0.490939 -0.380958 2.59291
thorax -3.4071 -0.150865 3.16012
lowerneck -18.3893 -3.85481 -9.96758
upperneck 15.9641 -3.96427 7.01533
head 8.33007 -1.78051 3.50218
rclavicle -7.95139e-016 5.24792e-014
rhumerus -34.7813 -14.5609 -76.6876
rradius 32.3044
rwrist 5.65946
rhand -13.5039 12.9103
rfingers 7.12502
rthumb 12.6074 -16.6893
lclavicle -7.95139e-016 5.24792e-014
lhumerus -33.82 4.80279 86.1198
lradius 30.1732
lwrist -11.5238
lhand -13.1556 26.209
lfingers 7.12502
lthumb 12.9432 55.7876
rfemur -4.58734 4.6464 21.1787
rtibia 18.1416
rfoot -9.29898 -9.273
rtoes 2.71651
lfemur -5.62782 -3.32401 -20.3343
ltibia 19.5801
lfoot -11.6278 5.09288
ltoes 2.90232
